<svg width="212" height="212" viewBox="0 0 212 212" fill="none" xmlns="http://www.w3.org/2000/svg">
<g clip-path="url(#clip0_7593_30682)">
<path d="M171.336 111.595H200.395C206.095 111.595 210.713 116.212 210.713 121.912V139.055C210.713 144.755 206.095 149.372 200.395 149.372H175.05C172.312 149.372 169.687 150.462 167.752 152.397L124.259 195.883C122.324 197.819 119.699 198.908 116.961 198.908H96.0534C90.4612 198.908 85.8796 194.449 85.736 188.856L85.2848 171.354C85.1343 165.554 89.7947 160.765 95.6022 160.765H113.598C116.337 160.765 118.961 159.675 120.897 157.739L164.023 114.613C165.959 112.677 168.583 111.588 171.322 111.588L171.336 111.595Z" fill="black"/>
<path d="M200.395 36.083C206.095 36.083 210.713 40.7004 210.713 46.4004V63.543C210.713 69.2429 206.095 73.8604 200.395 73.8604H175.05C172.312 73.8604 169.687 74.95 167.752 76.8857L124.259 120.378C122.324 122.314 119.699 123.403 116.961 123.403H91.5586C88.8987 123.403 86.3394 124.429 84.418 126.271L35.5918 173.061C33.6703 174.903 31.1102 175.929 28.4502 175.929H10.6553C4.95533 175.929 0.337891 171.304 0.337891 165.611V147.995C0.338131 142.295 4.95548 137.679 10.6553 137.679H28.3213C31.0602 137.679 33.6843 136.588 35.6202 134.652L81.9873 88.2861C83.9232 86.3503 86.5473 85.2598 89.2862 85.2598H113.598C116.337 85.2598 118.961 84.1702 120.897 82.2344L164.023 39.1084C165.959 37.1726 168.583 36.083 171.322 36.083H200.395Z" fill="black"/>
<path d="M114.114 14C119.814 14 124.431 18.6174 124.431 24.3174V41.46C124.431 47.1599 119.814 51.7773 114.114 51.7773H88.7692C86.0304 51.7773 83.4062 52.867 81.4703 54.8027L37.9782 98.2949C36.0423 100.231 33.418 101.32 30.6793 101.32H9.7731C4.1807 101.32 -0.400862 96.8609 -0.544303 91.2686L-0.996452 73.7676C-1.14702 67.9673 3.5135 63.1847 9.3209 63.1846H27.317C30.0558 63.1846 32.68 62.0949 34.6159 60.1592L77.7418 17.0332C79.6776 15.0974 82.3019 14.0069 85.0407 14.0068L85.0553 14H114.114Z" fill="black"/>
</g>
<defs>
<clipPath id="clip0_7593_30682">
<rect width="211.71" height="211.71" fill="white"/>
</clipPath>
</defs>
</svg>
