<svg width="34" height="34" viewBox="0 0 34 34" fill="none" xmlns="http://www.w3.org/2000/svg">
<g clip-path="url(#clip0_7593_30684)">
<circle cx="17" cy="17" r="17" fill="black"/>
<path d="M16.9989 31.0965C24.7843 31.0965 31.0955 24.7853 31.0955 16.9999C31.0955 9.21458 24.7843 2.90332 16.9989 2.90332C9.21361 2.90332 2.90234 9.21458 2.90234 16.9999C2.90234 24.7853 9.21361 31.0965 16.9989 31.0965Z" stroke="white" stroke-width="1.16026"/>
<path d="M10.3135 23.6856C15.8186 29.1906 23.2745 30.6601 26.9669 26.9678C30.6592 23.2755 29.1897 15.8195 23.6846 10.3145C18.1795 4.80942 10.7236 3.3399 7.03126 7.03222C3.33894 10.7245 4.80845 18.1805 10.3135 23.6856Z" stroke="white" stroke-width="1.16026"/>
<path d="M11.2441 17.0508H22.8287" stroke="white" stroke-width="1.16026"/>
<path d="M14.0938 19.9932L19.9796 14.1074" stroke="white" stroke-width="1.16026"/>
<path d="M19.9786 19.9932L14.0928 14.1074" stroke="white" stroke-width="1.16026"/>
<path fill-rule="evenodd" clip-rule="evenodd" d="M7.35434 10.796C4.90755 12.4371 3.48254 14.6416 3.48254 16.9998C3.48254 19.3579 4.90755 21.5624 7.35434 23.2035C9.7974 24.8421 13.2056 25.8744 16.999 25.8744C20.7924 25.8744 24.2005 24.8421 26.6436 23.2035C29.0904 21.5624 30.5154 19.3579 30.5154 16.9998C30.5154 14.6416 29.0904 12.4371 26.6436 10.796C24.2005 9.15742 20.7924 8.12511 16.999 8.12511C13.2056 8.12511 9.7974 9.15742 7.35434 10.796ZM6.70805 9.83242C9.36695 8.04906 13.007 6.96484 16.999 6.96484C20.9909 6.96484 24.631 8.04906 27.2899 9.83242C29.9451 11.6133 31.6757 14.1362 31.6757 16.9998C31.6757 19.8633 29.9451 22.3862 27.2899 24.1671C24.631 25.9505 20.9909 27.0347 16.999 27.0347C13.007 27.0347 9.36695 25.9505 6.70805 24.1671C4.05289 22.3862 2.32227 19.8633 2.32227 16.9998C2.32227 14.1362 4.05289 11.6133 6.70805 9.83242Z" fill="white"/>
</g>
<defs>
<clipPath id="clip0_7593_30684">
<rect width="34" height="34" fill="white"/>
</clipPath>
</defs>
</svg>
