<svg width="98" height="98" viewBox="0 0 98 98" fill="none" xmlns="http://www.w3.org/2000/svg">
<g clip-path="url(#clip0_7593_30661)">
<path d="M84.3337 7.41337L83.9203 7.45337V0H74.907L74.307 0.0400002V0H65.3069L64.6669 0.0400002L64.6936 52.0002H55.4935L55.0535 52.0402L55.0802 69.3336H45.8935L45.4935 69.3736V69.3336L42.5602 69.3736L42.5202 59.4003H36.1735L35.9068 59.4403V52.0002L32.9601 52.0402L32.9201 7.40003H26.7068L26.2934 7.44003V0H17.28L16.68 0.0400002V0H7.64L7 0.0400002L7.04 52.8669L9.97335 52.8269L10.0133 63.1336H16.64V70.2003L19.5734 70.1603L19.6134 80.467H26.2401V87.5337L29.1868 87.4937L29.2268 97.8004H71.3603L71.3203 80.467L74.307 80.427V80.467H80.9737V63.4536L80.9337 63.1336L83.9203 63.0936V63.1336H90.587L90.547 7.40003H84.3337V7.41337ZM16.64 52.8402V59.4536V59.4136L13.7067 59.4536L13.6667 52.8802L16.64 52.8402ZM16.64 61.9069H11.4L11.2134 61.9469L11.1734 52.8802L12.48 52.8402L12.52 60.6403L16.6534 60.6003V62.0003V61.9069H16.64ZM41.3068 60.6003L41.3468 69.3336L40.0401 69.3736L40.0001 61.9069H36.0401L35.8801 61.9469V60.6403L41.3068 60.6003ZM35.8801 69.3603V63.1336L38.8001 63.0936L38.8401 69.3336H35.9868L35.8801 69.3603ZM35.8668 87.507V87.547H64.7336L64.7069 70.2136H74.3336V52.8802H83.947L83.9203 11.1467L86.8537 11.1067L86.8937 59.4136H84.0403L83.907 59.4536V59.4136H77.547L77.227 59.4536V76.427L77.267 76.747H74.4136L74.2803 76.787V76.747H67.9203L67.6003 76.787L67.6403 94.0804H64.7869L64.6536 94.1204V94.0804H55.4535L55.0535 94.1204V94.0804H45.8535L45.4535 94.1204V94.0804H36.2535L35.8535 94.1204V94.0804L32.9201 94.1204L32.8801 87.547L35.8668 87.507ZM26.2667 8.64004L31.7068 8.60004L31.7468 52.0002L30.4401 52.0402L30.4001 9.90671H26.5334L26.2801 9.94671V8.56004V8.64004H26.2667ZM26.2401 70.1736V76.747L23.3201 76.787L23.2801 70.2136L26.2401 70.1736ZM21.0134 79.2403L20.8267 79.2803L20.7867 70.2136L22.0934 70.1736L22.1334 77.9737L26.2534 77.9337V79.2403H21.0134ZM26.3868 52.0002L26.2934 52.0269L26.2667 11.1067V11.1467L29.2001 11.1067L29.2401 52.0136H26.3868V52.0002ZM84.147 61.9069L83.9203 61.9336V61.8936H79.9603L79.747 61.9336V78.907L79.787 79.227H74.5336L74.307 79.267V79.227H70.3469L70.1336 79.267L70.1736 96.5604H64.9202L64.6936 96.6004V96.5604H55.4935L55.0935 96.6004V96.5604H45.8935L45.4935 96.6004V96.5604H36.2935L35.8935 96.6004V96.5604H30.6534L30.4668 96.6004L30.4268 87.5337L31.7334 87.4937L31.7734 95.2937L35.9068 95.2537V95.2937H68.9069L68.8669 77.9603L74.347 77.9203V77.9603H78.5203V60.9469L78.4803 60.6269L83.9603 60.5869V60.6269H88.1337L88.0937 9.89338H84.227L83.9737 9.93338V8.60004V8.6267L89.4137 8.5867L89.4537 61.8936H84.2003L84.147 61.9069Z" fill="black"/>
</g>
<defs>
<clipPath id="clip0_7593_30661">
<rect width="97.8" height="97.8" fill="white"/>
</clipPath>
</defs>
</svg>
